# Blender v3.2.0 OBJ File: 'test3.blend'
# www.blender.org
mtllib geometryScene.mtl
o Cube_Cube.001
v 6.172851 6.240803 5.411603
v 6.172851 -6.240803 5.411603
v 5.597787 6.240803 6.232708
v 5.597787 -6.240803 6.232708
v -7.597787 6.240803 -4.232708
v -7.597787 -6.240803 -4.232708
v -8.172852 6.240803 -3.411603
v -8.172852 -6.240803 -3.411603
vt 0.625000 0.500000
vt 0.875000 0.500000
vt 0.875000 0.750000
vt 0.625000 0.750000
vt 0.375000 0.750000
vt 0.625000 1.000000
vt 0.375000 1.000000
vt 0.375000 0.000000
vt 0.625000 0.000000
vt 0.625000 0.250000
vt 0.375000 0.250000
vt 0.125000 0.500000
vt 0.375000 0.500000
vt 0.125000 0.750000
vn 0.0000 1.0000 0.0000
vn -0.5737 0.0000 0.8191
vn -0.8191 0.0000 -0.5737
vn 0.0000 -1.0000 0.0000
vn 0.8191 0.0000 0.5737
vn 0.5737 0.0000 -0.8191
usemtl Material.001
s off
f 1/1/1 5/2/1 7/3/1 3/4/1
f 4/5/2 3/4/2 7/6/2 8/7/2
f 8/8/3 7/9/3 5/10/3 6/11/3
f 6/12/4 2/13/4 4/5/4 8/14/4
f 2/13/5 1/1/5 3/4/5 4/5/5
f 6/11/6 5/10/6 1/1/6 2/13/6
o Icosphere
v 6.378002 -2.008235 -1.997498
v 7.831176 -0.898122 -0.941718
v 5.822950 -0.898123 -0.289194
v 4.581784 -0.898114 -1.997498
v 5.822950 -0.898123 -3.705802
v 7.831176 -0.898122 -3.053278
v 6.933054 0.898123 -0.289194
v 4.924829 0.898122 -0.941718
v 4.924829 0.898122 -3.053278
v 6.933054 0.898123 -3.705802
v 8.174220 0.898114 -1.997498
v 6.378002 2.008235 -1.997498
v 6.051753 -1.708314 -0.993390
v 7.232150 -1.708314 -1.376931
v 6.905905 -1.055805 -0.372813
v 8.086303 -1.055801 -1.997498
v 7.232150 -1.708314 -2.618066
v 5.322213 -1.708309 -1.997498
v 4.995956 -1.055802 -0.993387
v 6.051753 -1.708314 -3.001606
v 4.995956 -1.055802 -3.001610
v 6.905905 -1.055805 -3.622184
v 8.287951 0.000000 -1.376928
v 8.287951 0.000000 -2.618068
v 6.378002 0.000000 0.010737
v 7.558414 0.000000 -0.372802
v 4.468054 0.000000 -1.376928
v 5.197590 0.000000 -0.372802
v 5.197590 0.000000 -3.622194
v 4.468054 0.000000 -2.618068
v 7.558414 0.000000 -3.622194
v 6.378002 0.000000 -4.005733
v 7.760048 1.055802 -0.993387
v 5.850100 1.055805 -0.372813
v 4.669701 1.055801 -1.997498
v 5.850100 1.055805 -3.622184
v 7.760048 1.055802 -3.001610
v 6.704251 1.708314 -0.993390
v 7.433791 1.708309 -1.997498
v 5.523854 1.708314 -1.376931
v 5.523854 1.708314 -2.618066
v 6.704251 1.708314 -3.001606
vt 0.181819 0.000000
vt 0.227273 0.078731
vt 0.136365 0.078731
vt 0.272728 0.157461
vt 0.318182 0.078731
vt 0.363637 0.157461
vt 0.909091 0.000000
vt 0.954545 0.078731
vt 0.863636 0.078731
vt 0.727273 0.000000
vt 0.772727 0.078731
vt 0.681818 0.078731
vt 0.545455 0.000000
vt 0.590909 0.078731
vt 0.500000 0.078731
vt 0.318182 0.236191
vt 0.090910 0.157461
vt 0.181819 0.157461
vt 0.136365 0.236191
vt 0.818182 0.157461
vt 0.909091 0.157461
vt 0.863636 0.236191
vt 0.636364 0.157461
vt 0.727273 0.157461
vt 0.681818 0.236191
vt 0.454546 0.157461
vt 0.545455 0.157461
vt 0.500000 0.236191
vt 0.227273 0.236191
vt 0.045455 0.236191
vt 0.772727 0.236191
vt 0.590909 0.236191
vt 0.409092 0.236191
vt 0.181819 0.314921
vt 0.272728 0.314921
vt 0.227273 0.393651
vt 0.000000 0.314921
vt 0.090910 0.314921
vt 0.045455 0.393651
vt 0.727273 0.314921
vt 0.818182 0.314921
vt 0.772727 0.393651
vt 0.545455 0.314921
vt 0.636364 0.314921
vt 0.590909 0.393651
vt 0.363637 0.314921
vt 0.454546 0.314921
vt 0.409092 0.393651
vt 0.500000 0.393651
vt 0.454546 0.472382
vt 0.681818 0.393651
vt 0.636364 0.472382
vt 0.863636 0.393651
vt 0.818182 0.472382
vt 0.909091 0.314921
vt 0.136365 0.393651
vt 0.090910 0.472382
vt 0.318182 0.393651
vt 0.272728 0.472382
vt 0.954545 0.236191
vt 1.000000 0.157461
vt 0.409092 0.078731
vt 0.363637 0.000000
vn 0.1024 -0.9435 0.3151
vn 0.7002 -0.6617 0.2680
vn -0.2680 -0.9435 0.1947
vn -0.2680 -0.9435 -0.1947
vn 0.1024 -0.9435 -0.3151
vn 0.9050 -0.3304 0.2680
vn 0.0247 -0.3304 0.9435
vn -0.8897 -0.3304 0.3151
vn -0.5746 -0.3304 -0.7488
vn 0.5346 -0.3304 -0.7779
vn 0.8026 -0.1256 0.5831
vn -0.3066 -0.1256 0.9435
vn -0.9921 -0.1256 0.0000
vn -0.3066 -0.1256 -0.9435
vn 0.8026 -0.1256 -0.5831
vn 0.4089 0.6617 0.6284
vn -0.4713 0.6617 0.5831
vn -0.7002 0.6617 -0.2680
vn 0.0385 0.6617 -0.7488
vn 0.7240 0.6617 -0.1947
vn 0.2680 0.9435 -0.1947
vn 0.4911 0.7947 -0.3568
vn 0.4089 0.6617 -0.6284
vn -0.1024 0.9435 -0.3151
vn -0.1876 0.7947 -0.5773
vn -0.4713 0.6617 -0.5831
vn -0.3313 0.9435 0.0000
vn -0.6071 0.7947 0.0000
vn -0.7002 0.6617 0.2680
vn -0.1024 0.9435 0.3151
vn -0.1876 0.7947 0.5773
vn 0.0385 0.6617 0.7488
vn 0.2680 0.9435 0.1947
vn 0.4911 0.7947 0.3568
vn 0.7240 0.6617 0.1947
vn 0.8897 0.3304 -0.3151
vn 0.7947 0.1876 -0.5773
vn 0.5746 0.3304 -0.7488
vn -0.0247 0.3304 -0.9435
vn -0.3035 0.1876 -0.9342
vn -0.5346 0.3304 -0.7779
vn -0.9050 0.3304 -0.2680
vn -0.9822 0.1876 0.0000
vn -0.9050 0.3304 0.2680
vn -0.5346 0.3304 0.7779
vn -0.3035 0.1876 0.9342
vn -0.0247 0.3304 0.9435
vn 0.5746 0.3304 0.7488
vn 0.7947 0.1876 0.5773
vn 0.8897 0.3304 0.3151
vn 0.3066 0.1256 -0.9435
vn 0.3035 -0.1876 -0.9342
vn 0.0247 -0.3304 -0.9435
vn -0.8026 0.1256 -0.5831
vn -0.7947 -0.1876 -0.5773
vn -0.8897 -0.3304 -0.3151
vn -0.8026 0.1256 0.5831
vn -0.7947 -0.1876 0.5773
vn -0.5746 -0.3304 0.7488
vn 0.3066 0.1256 0.9435
vn 0.3035 -0.1876 0.9342
vn 0.5346 -0.3304 0.7779
vn 0.9921 0.1256 0.0000
vn 0.9822 -0.1876 0.0000
vn 0.9050 -0.3304 -0.2680
vn 0.4713 -0.6617 -0.5831
vn 0.1876 -0.7947 -0.5773
vn -0.0385 -0.6617 -0.7488
vn -0.4089 -0.6617 -0.6284
vn -0.4911 -0.7947 -0.3568
vn -0.7240 -0.6617 -0.1947
vn -0.7240 -0.6617 0.1947
vn -0.4911 -0.7947 0.3568
vn -0.4089 -0.6617 0.6284
vn 0.7002 -0.6617 -0.2680
vn 0.6071 -0.7947 0.0000
vn 0.3313 -0.9435 0.0000
vn -0.0385 -0.6617 0.7488
vn 0.1876 -0.7947 0.5773
vn 0.4713 -0.6617 0.5831
usemtl Material.005
s off
f 9/15/7 22/16/7 21/17/7
f 10/18/8 22/19/8 24/20/8
f 9/21/9 21/22/9 26/23/9
f 9/24/10 26/25/10 28/26/10
f 9/27/11 28/28/11 25/29/11
f 10/18/12 24/20/12 31/30/12
f 11/31/13 23/32/13 33/33/13
f 12/34/14 27/35/14 35/36/14
f 13/37/15 29/38/15 37/39/15
f 14/40/16 30/41/16 39/42/16
f 10/18/17 31/30/17 34/43/17
f 11/31/18 33/33/18 36/44/18
f 12/34/19 35/36/19 38/45/19
f 13/37/20 37/39/20 40/46/20
f 14/40/21 39/42/21 32/47/21
f 15/48/22 41/49/22 46/50/22
f 16/51/23 42/52/23 48/53/23
f 17/54/24 43/55/24 49/56/24
f 18/57/25 44/58/25 50/59/25
f 19/60/26 45/61/26 47/62/26
f 47/62/27 50/63/27 20/64/27
f 47/62/28 45/61/28 50/63/28
f 45/61/29 18/57/29 50/63/29
f 50/59/30 49/65/30 20/66/30
f 50/59/31 44/58/31 49/65/31
f 44/58/32 17/54/32 49/65/32
f 49/56/33 48/67/33 20/68/33
f 49/56/34 43/55/34 48/67/34
f 43/55/35 16/69/35 48/67/35
f 48/53/36 46/70/36 20/71/36
f 48/53/37 42/52/37 46/70/37
f 42/52/38 15/48/38 46/70/38
f 46/50/39 47/72/39 20/73/39
f 46/50/40 41/49/40 47/72/40
f 41/49/41 19/60/41 47/72/41
f 32/47/42 45/61/42 19/60/42
f 32/47/43 39/42/43 45/61/43
f 39/42/44 18/57/44 45/61/44
f 40/46/45 44/58/45 18/57/45
f 40/46/46 37/39/46 44/58/46
f 37/39/47 17/54/47 44/58/47
f 38/45/48 43/55/48 17/54/48
f 38/45/49 35/36/49 43/55/49
f 35/36/50 16/69/50 43/55/50
f 36/44/51 42/52/51 16/51/51
f 36/44/52 33/33/52 42/52/52
f 33/33/53 15/48/53 42/52/53
f 34/43/54 41/49/54 15/48/54
f 34/43/55 31/30/55 41/49/55
f 31/30/56 19/60/56 41/49/56
f 39/42/57 40/46/57 18/57/57
f 39/42/58 30/41/58 40/46/58
f 30/41/59 13/37/59 40/46/59
f 37/39/60 38/45/60 17/54/60
f 37/39/61 29/38/61 38/45/61
f 29/38/62 12/34/62 38/45/62
f 35/36/63 36/74/63 16/69/63
f 35/36/64 27/35/64 36/74/64
f 27/35/65 11/75/65 36/74/65
f 33/33/66 34/43/66 15/48/66
f 33/33/67 23/32/67 34/43/67
f 23/32/68 10/18/68 34/43/68
f 31/30/69 32/47/69 19/60/69
f 31/30/70 24/20/70 32/47/70
f 24/20/71 14/40/71 32/47/71
f 25/29/72 30/41/72 14/40/72
f 25/29/73 28/28/73 30/41/73
f 28/28/74 13/37/74 30/41/74
f 28/26/75 29/38/75 13/37/75
f 28/26/76 26/25/76 29/38/76
f 26/25/77 12/34/77 29/38/77
f 26/23/78 27/35/78 12/34/78
f 26/23/79 21/22/79 27/35/79
f 21/22/80 11/75/80 27/35/80
f 24/20/81 25/76/81 14/40/81
f 24/20/82 22/19/82 25/76/82
f 22/19/83 9/77/83 25/76/83
f 21/17/84 23/32/84 11/31/84
f 21/17/85 22/16/85 23/32/85
f 22/16/86 10/18/86 23/32/86
o Icosphere.001
v 7.050394 2.671310 2.079799
v 8.353448 4.394035 0.603448
v 7.242353 5.166625 2.842617
v 4.973103 3.890374 3.101658
v 4.681769 2.329021 1.022544
v 6.770933 2.640314 -0.521409
v 7.081495 6.677823 0.712873
v 4.992331 6.366529 2.256826
v 3.409816 4.612808 1.131969
v 4.520910 3.840219 -1.107200
v 6.790161 5.116469 -1.366241
v 4.712870 6.335533 -0.344382
vt 0.181819 0.000000
vt 0.272728 0.157461
vt 0.090910 0.157461
vt 0.363637 0.000000
vt 0.454546 0.157461
vt 0.909091 0.000000
vt 1.000000 0.157461
vt 0.818182 0.157461
vt 0.727273 0.000000
vt 0.636364 0.157461
vt 0.545455 0.000000
vt 0.363637 0.314921
vt 0.181819 0.314921
vt 0.909091 0.314921
vt 0.727273 0.314921
vt 0.545455 0.314921
vt 0.000000 0.314921
vt 0.272728 0.472382
vt 0.090910 0.472382
vt 0.818182 0.472382
vt 0.636364 0.472382
vt 0.454546 0.472382
vn 0.8431 -0.2155 0.4927
vn 0.7636 -0.6414 -0.0744
vn 0.2733 -0.3004 0.9138
vn -0.1584 -0.7787 0.6070
vn 0.1447 -0.9895 -0.0038
vn 0.7198 -0.2292 -0.6553
vn 0.8483 0.4599 0.2623
vn -0.0737 0.3225 0.9437
vn -0.7721 -0.4515 0.4472
vn -0.2817 -0.7924 -0.5410
vn 0.7721 0.4515 -0.4472
vn 0.2817 0.7924 0.5410
vn -0.7198 0.2292 0.6553
vn -0.8483 -0.4599 -0.2623
vn 0.0737 -0.3225 -0.9437
vn 0.1584 0.7787 -0.6070
vn -0.1447 0.9895 0.0038
vn -0.7636 0.6414 0.0744
vn -0.8431 0.2155 -0.4927
vn -0.2733 0.3004 -0.9138
usemtl Material.006
s off
f 51/78/87 52/79/87 53/80/87
f 52/79/88 51/81/88 56/82/88
f 51/83/89 53/84/89 54/85/89
f 51/86/90 54/85/90 55/87/90
f 51/88/91 55/87/91 56/82/91
f 52/79/92 56/82/92 61/89/92
f 53/80/93 52/79/93 57/90/93
f 54/85/94 53/84/94 58/91/94
f 55/87/95 54/85/95 59/92/95
f 56/82/96 55/87/96 60/93/96
f 52/79/97 61/89/97 57/90/97
f 53/80/98 57/90/98 58/94/98
f 54/85/99 58/91/99 59/92/99
f 55/87/100 59/92/100 60/93/100
f 56/82/101 60/93/101 61/89/101
f 57/90/102 61/89/102 62/95/102
f 58/94/103 57/90/103 62/96/103
f 59/92/104 58/91/104 62/97/104
f 60/93/105 59/92/105 62/98/105
f 61/89/106 60/93/106 62/99/106
o Cube.001_Cube
v 4.971332 -4.678014 6.255783
v -3.238415 5.854497 4.670161
v -0.897139 -11.182739 -6.567211
v -9.106886 -0.650229 -8.152833
v 5.645269 -4.233111 5.721668
v -2.564478 6.299400 4.136046
v -0.223202 -10.737836 -7.101326
v -8.432949 -0.205325 -8.686948
vt 0.375000 0.000000
vt 0.625000 0.000000
vt 0.625000 0.250000
vt 0.375000 0.250000
vt 0.625000 0.500000
vt 0.375000 0.500000
vt 0.625000 0.750000
vt 0.375000 0.750000
vt 0.625000 1.000000
vt 0.375000 1.000000
vt 0.125000 0.500000
vt 0.125000 0.750000
vt 0.875000 0.500000
vt 0.875000 0.750000
vn -0.6961 -0.4595 0.5517
vn -0.3779 -0.4189 -0.8257
vn 0.6961 0.4595 -0.5517
vn 0.3779 0.4189 0.8257
vn 0.6105 -0.7832 0.1179
vn -0.6105 0.7832 -0.1179
usemtl Material.007
s off
f 63/100/107 64/101/107 66/102/107 65/103/107
f 65/103/108 66/102/108 70/104/108 69/105/108
f 69/105/109 70/104/109 68/106/109 67/107/109
f 67/107/110 68/106/110 64/108/110 63/109/110
f 65/110/111 69/105/111 67/107/111 63/111/111
f 70/104/112 66/112/112 64/113/112 68/106/112
o Plane
v -5.004389 3.423360 -3.324005
v -1.524133 4.552271 -2.425077
v -3.602745 0.220570 -4.728363
v -0.122488 1.349481 -3.829434
vt 0.000000 0.000000
vt 1.000000 0.000000
vt 1.000000 1.000000
vt 0.000000 1.000000
vn 0.0911 0.4331 -0.8967
usemtl Material.008
s off
f 71/114/113 72/115/113 74/116/113 73/117/113
